<svg width="19" height="10" viewBox="0 0 19 10" fill="none" xmlns="http://www.w3.org/2000/svg">
<path d="M6.6233 8.54348L0.394609 2.31479C0.141864 2.06054 0 1.7166 0 1.3581C0 0.999593 0.141864 0.655655 0.394609 0.401402C0.520761 0.274211 0.670848 0.173258 0.836213 0.104364C1.00158 0.0354702 1.17895 0 1.35809 0C1.53723 0 1.7146 0.0354703 1.87996 0.104364C2.04533 0.173258 2.19542 0.274211 2.32157 0.401402L8.53669 6.64366C8.66284 6.77085 8.81292 6.87181 8.97829 6.9407C9.14365 7.00959 9.32102 7.04506 9.50017 7.04506C9.67931 7.04506 9.85668 7.00959 10.022 6.9407C10.1874 6.87181 10.3375 6.77085 10.4636 6.64366L16.6788 0.401402C16.9325 0.145872 17.2773 0.00160116 17.6374 0.000328714C17.9975 -0.000943733 18.3434 0.140887 18.5989 0.394618C18.8545 0.648349 18.9987 0.993196 19 1.3533C19.0013 1.7134 18.8594 2.05926 18.6057 2.31479L12.377 8.54348C11.6137 9.30585 10.579 9.73407 9.50017 9.73407C8.42134 9.73407 7.38662 9.30585 6.6233 8.54348Z" fill="#0B0B0B"/>
</svg>