<svg width="21" height="21" viewBox="0 0 21 21" fill="none" xmlns="http://www.w3.org/2000/svg">
<path d="M10.1169 2.85816C10.1547 2.78957 10.2102 2.73237 10.2776 2.69253C10.345 2.65269 10.4219 2.63167 10.5002 2.63167C10.5785 2.63167 10.6553 2.65269 10.7227 2.69253C10.7902 2.73237 10.8456 2.78957 10.8834 2.85816L13.4664 7.76165C13.528 7.8752 13.614 7.97369 13.7182 8.05007C13.8223 8.12645 13.9421 8.17881 14.0689 8.2034C14.1957 8.228 14.3264 8.22421 14.4516 8.19231C14.5768 8.16041 14.6933 8.10119 14.7929 8.0189L18.5353 4.81291C18.6071 4.75448 18.6956 4.72035 18.7881 4.71544C18.8806 4.71052 18.9722 4.73507 19.0499 4.78556C19.1275 4.83605 19.1871 4.90987 19.2201 4.99639C19.2531 5.08291 19.2578 5.17767 19.2335 5.26703L16.7538 14.2323C16.7032 14.4157 16.5941 14.5777 16.4432 14.6936C16.2922 14.8095 16.1076 14.873 15.9173 14.8745H5.08392C4.89346 14.8732 4.70864 14.8098 4.55751 14.6938C4.40639 14.5779 4.29721 14.4159 4.24655 14.2323L1.76768 5.26791C1.7434 5.17855 1.7481 5.08378 1.7811 4.99726C1.8141 4.91074 1.87371 4.83693 1.95134 4.78644C2.02897 4.73595 2.12061 4.7114 2.21309 4.71631C2.30556 4.72122 2.39409 4.75535 2.46593 4.81378L6.20742 8.01978C6.30699 8.10206 6.42355 8.16128 6.54872 8.19318C6.6739 8.22508 6.80458 8.22887 6.93139 8.20428C7.0582 8.17969 7.178 8.12732 7.28217 8.05094C7.38635 7.97457 7.47232 7.87607 7.53392 7.76253L10.1169 2.85816Z" stroke="white" stroke-width="1.72819" stroke-linecap="round" stroke-linejoin="round"/>
<path d="M4.3749 18.3749H16.6249" stroke="white" stroke-width="1.72819" stroke-linecap="round" stroke-linejoin="round"/>
</svg>
