<svg width="19" height="10" viewBox="0 0 19 10" fill="none" xmlns="http://www.w3.org/2000/svg">
<path d="M12.3767 1.19059L18.6054 7.41928C18.8582 7.67353 19 8.01747 19 8.37597C19 8.73448 18.8582 9.07841 18.6054 9.33267C18.4793 9.45986 18.3292 9.56081 18.1638 9.6297C17.9984 9.6986 17.8211 9.73407 17.6419 9.73407C17.4628 9.73407 17.2854 9.6986 17.1201 9.6297C16.9547 9.56081 16.8046 9.45986 16.6785 9.33267L10.4633 3.09041C10.3372 2.96322 10.1871 2.86226 10.0217 2.79337C9.85636 2.72448 9.679 2.68901 9.49985 2.68901C9.32071 2.68901 9.14334 2.72448 8.97798 2.79337C8.81261 2.86226 8.66253 2.96322 8.53637 3.09041L2.32125 9.33267C2.06752 9.5882 1.72268 9.73247 1.36258 9.73374C1.00247 9.73501 0.656613 9.59318 0.401082 9.33945C0.145554 9.08572 0.00128191 8.74087 8.47584e-06 8.38077C-0.00126302 8.02067 0.140569 7.67481 0.3943 7.41928L6.62299 1.19059C7.38631 0.428218 8.42103 -1.28649e-08 9.49985 0C10.5787 1.28649e-08 11.6134 0.428218 12.3767 1.19059Z" fill="#0B0B0B"/>
</svg>
